<svg width="120" height="128" viewBox="0 0 120 128" fill="none" xmlns="http://www.w3.org/2000/svg">
<g clip-path="url(#clip0_7:1087)" filter="url(#filter0_d_7:1087)">
<path d="M59.8455 4.33863C56.1612 4.33561 52.9422 6.8281 52.0244 10.3967L52.0243 10.3968C51.8061 11.2457 51.0413 11.8386 50.1658 11.8386H41.613H41.113V12.3386V24.4353V24.9353H41.613H78.1452H78.6452V24.4353V12.3386V11.8386H78.1452H69.573M59.8455 4.33863L59.8451 4.83863V4.33863H59.8455ZM59.8455 4.33863H59.8696C63.6333 4.33863 66.9417 6.83218 67.6967 10.322L67.6968 10.3224C67.8873 11.2065 68.6686 11.8379 69.573 11.8386M69.573 11.8386H69.5725V12.3363L69.573 11.8386ZM82.4838 16.2096V16.7096H82.9838H93.5675C99.7071 16.7096 104.742 21.5476 104.742 27.4075V108.835C104.742 114.694 99.7091 119.499 93.5675 119.499H26.4335C20.2919 119.499 15.2583 114.693 15.2583 108.835V27.4075C15.2583 21.5477 20.2939 16.7096 26.4335 16.7096H36.7743H37.2743V16.2096V9.92469C37.3122 8.84682 38.2008 7.99312 39.2803 7.99992H39.2835H48.443H48.7751L48.9039 7.69378C50.7513 3.30188 55.0689 0.460041 59.8333 0.499926V0.499944H59.8375H59.8763C64.7801 0.499944 69.1373 3.52429 70.8833 7.69308L71.0119 7.99992H71.3445H80.5855C81.092 8.00066 81.5769 8.20215 81.9336 8.56115C82.2895 8.92017 82.4876 9.40624 82.4838 9.91273V9.91643V16.2096ZM37.2743 21.0483V20.5483H36.7743H26.4335C22.4659 20.5483 19.097 23.6087 19.097 27.4075V108.835C19.097 112.638 22.4695 115.661 26.4335 115.661H93.5675C97.5307 115.661 100.903 112.638 100.903 108.835V27.4075C100.903 23.6087 97.5343 20.5483 93.5675 20.5483H82.9838H82.4838V21.0483L82.4838 26.7829L82.4839 26.7888C82.4967 27.8591 81.649 28.7421 80.5792 28.774H39.2886C38.1915 28.7504 37.3064 27.8718 37.2743 26.776V21.0483Z" fill="#DCE0EC" stroke="black"/>
<path d="M42.1593 90.9674H77.842C79.1783 90.9674 80.2614 89.8843 80.2614 88.548C80.2614 87.2126 79.1783 86.1287 77.842 86.1287H42.1593C40.823 86.1287 39.74 87.2126 39.74 88.548C39.74 89.8843 40.823 90.9674 42.1593 90.9674V90.9674Z" fill="#DCE0EC"/>
<path d="M34.901 100.645H85.0998C86.4361 100.645 87.5192 99.5617 87.5192 98.2254C87.5192 96.89 86.4361 95.806 85.0998 95.806H34.901C33.5647 95.806 32.4817 96.89 32.4817 98.2254C32.4817 99.5617 33.5647 100.645 34.901 100.645V100.645Z" fill="#DCE0EC"/>
<path d="M43.3066 65.3225H52.742V74.758C52.742 76.0943 53.8251 77.1773 55.1614 77.1773H64.8388C66.1751 77.1773 67.2582 76.0943 67.2582 74.758V65.3225H76.6937C78.03 65.3225 79.113 64.2395 79.113 62.9032V53.2257C79.113 51.8904 78.03 50.8064 76.6937 50.8064H67.2582V41.3709C67.2582 40.0355 66.1751 38.9515 64.8388 38.9515H55.1614C53.8251 38.9515 52.742 40.0355 52.742 41.3709V50.8064H43.3066C41.9702 50.8064 40.8872 51.8904 40.8872 53.2257V62.9032C40.8872 64.2395 41.9702 65.3225 43.3066 65.3225ZM45.7259 55.6451H55.1614C56.4977 55.6451 57.5808 54.562 57.5808 53.2257V43.7902H62.4195V53.2257C62.4195 54.562 63.5025 55.6451 64.8388 55.6451H74.2743V60.4838H64.8388C63.5025 60.4838 62.4195 61.5678 62.4195 62.9032V72.3386H57.5808V62.9032C57.5808 61.5678 56.4977 60.4838 55.1614 60.4838H45.7259V55.6451Z" fill="#DCE0EC"/>
</g>
<defs>
<filter id="filter0_d_7:1087" x="-4" y="0" width="128" height="128" filterUnits="userSpaceOnUse" color-interpolation-filters="sRGB">
<feFlood flood-opacity="0" result="BackgroundImageFix"/>
<feColorMatrix in="SourceAlpha" type="matrix" values="0 0 0 0 0 0 0 0 0 0 0 0 0 0 0 0 0 0 127 0" result="hardAlpha"/>
<feOffset dy="4"/>
<feGaussianBlur stdDeviation="2"/>
<feComposite in2="hardAlpha" operator="out"/>
<feColorMatrix type="matrix" values="0 0 0 0 0 0 0 0 0 0 0 0 0 0 0 0 0 0 0.25 0"/>
<feBlend mode="normal" in2="BackgroundImageFix" result="effect1_dropShadow_7:1087"/>
<feBlend mode="normal" in="SourceGraphic" in2="effect1_dropShadow_7:1087" result="shape"/>
</filter>
<clipPath id="clip0_7:1087">
<rect width="120" height="120" fill="white"/>
</clipPath>
</defs>
</svg>
