<?xml version="1.0" encoding="utf-8"?>
<!-- Generated by IcoMoon.io -->
<svg version="1.1" xmlns="http://www.w3.org/2000/svg" xmlns:xlink="http://www.w3.org/1999/xlink" width="752" height="32" viewBox="0 0 752 32">
<svg id="icon-angle-left-b" width="32" height="32" viewBox="0 0 32 32" x="0" y="0">
<path fill="#a1abc9" d="M11.333 17.067l7.6 7.467c0.533 0.533 1.333 0.533 1.867 0s0.533-1.333 0-1.867l-6.533-6.667 6.533-6.667c0.533-0.533 0.533-1.333 0-1.867-0.267-0.267-0.533-0.4-0.933-0.4s-0.667 0.133-0.933 0.4l-7.6 7.467c-0.533 0.667-0.533 1.467 0 2.133 0-0.133 0-0.133 0 0z"></path>
</svg>
<svg id="icon-angle-right-b" width="32" height="32" viewBox="0 0 32 32" x="48" y="0">
<path fill="#a1abc9" d="M20.72 15.053l-7.547-7.533c-0.124-0.125-0.271-0.224-0.434-0.292s-0.337-0.103-0.513-0.103c-0.176 0-0.35 0.035-0.513 0.103s-0.31 0.167-0.434 0.292c-0.248 0.25-0.388 0.588-0.388 0.94s0.139 0.69 0.388 0.94l6.6 6.667-6.6 6.6c-0.248 0.25-0.388 0.588-0.388 0.94s0.139 0.69 0.388 0.94c0.123 0.126 0.271 0.226 0.433 0.295s0.337 0.104 0.513 0.105c0.176-0.001 0.351-0.037 0.513-0.105s0.31-0.169 0.433-0.295l7.547-7.533c0.135-0.125 0.243-0.276 0.317-0.445s0.112-0.351 0.112-0.535c0-0.184-0.038-0.366-0.112-0.535s-0.182-0.32-0.317-0.445z"></path>
</svg>
<svg id="icon-check" width="32" height="32" viewBox="0 0 32 32" x="96" y="0">
<path fill="#a1abc9" d="M24.947 9.613c-0.124-0.125-0.271-0.224-0.434-0.292s-0.337-0.103-0.513-0.103c-0.176 0-0.35 0.035-0.513 0.103s-0.31 0.167-0.434 0.292l-9.933 9.947-4.173-4.187c-0.129-0.124-0.281-0.222-0.447-0.288s-0.344-0.098-0.523-0.095c-0.179 0.003-0.355 0.041-0.52 0.113s-0.313 0.174-0.437 0.303-0.222 0.281-0.288 0.447c-0.066 0.167-0.098 0.344-0.095 0.523s0.041 0.355 0.113 0.519c0.071 0.164 0.174 0.313 0.303 0.437l5.12 5.12c0.124 0.125 0.271 0.224 0.434 0.292s0.337 0.103 0.513 0.103 0.35-0.035 0.513-0.103c0.163-0.068 0.31-0.167 0.434-0.292l10.88-10.88c0.135-0.125 0.243-0.276 0.317-0.445s0.112-0.351 0.112-0.535c0-0.184-0.038-0.366-0.112-0.535s-0.182-0.32-0.317-0.445z"></path>
</svg>
<svg id="icon-clipboard-blank" width="32" height="32" viewBox="0 0 32 32" x="144" y="0">
<path fill="#fff" stroke="#dce0ec" stroke-linejoin="miter" stroke-linecap="butt" stroke-miterlimit="4" stroke-width="1.3333" d="M20.434 5.333v0.667h1.985c0.87 0 1.706 0.349 2.324 0.974s0.966 1.473 0.966 2.36v16c0 0.886-0.348 1.735-0.966 2.36s-1.453 0.974-2.324 0.974h-13.188c-0.87 0-1.706-0.349-2.324-0.974s-0.966-1.473-0.966-2.36v-16c0-0.886 0.348-1.735 0.966-2.36s1.454-0.974 2.324-0.974h1.985v-0.667c0-0.533 0.209-1.042 0.58-1.417s0.871-0.583 1.391-0.583h5.275c0.52 0 1.021 0.209 1.391 0.583s0.58 0.884 0.58 1.417zM13.188 4.667h-0.667v4h6.609v-4h-5.942zM11.217 8v-0.667h-1.985c-0.529 0-1.035 0.213-1.407 0.588s-0.579 0.884-0.579 1.412v16c0 0.528 0.207 1.036 0.579 1.412v0c0.372 0.376 0.878 0.588 1.406 0.588h13.188c0.529 0 1.035-0.213 1.407-0.588s0.579-0.883 0.579-1.412v-16c0-0.528-0.207-1.036-0.579-1.412s-0.878-0.588-1.407-0.588h-1.985v0.667c0 0.533-0.209 1.042-0.58 1.417s-0.871 0.583-1.391 0.583h-5.275c-0.52 0-1.021-0.209-1.391-0.583s-0.58-0.884-0.58-1.417z"></path>
</svg>
<svg id="icon-clock-three" width="32" height="32" viewBox="0 0 32 32" x="192" y="0">
<path fill="#fff" stroke="#dce0ec" stroke-linejoin="miter" stroke-linecap="butt" stroke-miterlimit="4" stroke-width="1.3333" d="M16.667 14.667v0.667h3.333c0.177 0 0.346 0.070 0.471 0.195s0.195 0.295 0.195 0.471-0.070 0.346-0.195 0.471c-0.125 0.125-0.295 0.195-0.471 0.195h-4c-0.177 0-0.346-0.070-0.471-0.195s-0.195-0.295-0.195-0.471v-6.667c0-0.177 0.070-0.346 0.195-0.471s0.295-0.195 0.471-0.195 0.346 0.070 0.471 0.195c0.125 0.125 0.195 0.295 0.195 0.471v5.333zM8.963 5.468c2.083-1.392 4.532-2.135 7.037-2.135 1.663 0 3.311 0.328 4.847 0.964s2.933 1.57 4.109 2.746c1.176 1.176 2.109 2.573 2.746 4.109s0.964 3.184 0.964 4.847c0 2.505-0.743 4.954-2.135 7.037s-3.37 3.707-5.685 4.665c-2.315 0.959-4.861 1.209-7.319 0.721s-4.714-1.695-6.485-3.467-2.978-4.028-3.467-6.485c-0.489-2.457-0.238-5.004 0.721-7.319s2.582-4.293 4.665-5.685zM9.704 25.423c1.864 1.245 4.055 1.91 6.296 1.91 3.006 0 5.889-1.194 8.014-3.319s3.319-5.008 3.319-8.014c0-2.241-0.665-4.433-1.91-6.296s-3.015-3.316-5.086-4.174c-2.071-0.858-4.35-1.082-6.548-0.645s-4.218 1.517-5.803 3.102-2.664 3.604-3.102 5.803c-0.437 2.199-0.213 4.477 0.645 6.548s2.31 3.841 4.174 5.086z"></path>
</svg>
<svg id="icon-email" width="32" height="32" viewBox="0 0 32 32" x="240" y="0">
<path fill="#a1abc9" d="M25.333 5.333h-18.667c-1.061 0-2.078 0.421-2.828 1.172s-1.172 1.768-1.172 2.828v13.333c0 1.061 0.421 2.078 1.172 2.828s1.768 1.172 2.828 1.172h18.667c1.061 0 2.078-0.421 2.828-1.172s1.172-1.768 1.172-2.828v-13.333c0-1.061-0.421-2.078-1.172-2.828s-1.768-1.172-2.828-1.172zM6.667 8h18.667c0.354 0 0.693 0.14 0.943 0.391s0.391 0.589 0.391 0.943l-10.667 6.507-10.667-6.507c0-0.354 0.14-0.693 0.391-0.943s0.589-0.391 0.943-0.391zM26.667 22.667c0 0.354-0.141 0.693-0.391 0.943s-0.589 0.391-0.943 0.391h-18.667c-0.354 0-0.693-0.141-0.943-0.391s-0.391-0.589-0.391-0.943v-10.293l9.973 6.093c0.203 0.117 0.433 0.179 0.667 0.179s0.464-0.062 0.667-0.179l10.027-6.093v10.293z"></path>
</svg>
<svg id="icon-eye" width="32" height="32" viewBox="0 0 32 32" x="288" y="0">
<path fill="#a1abc9" d="M0.141 15.404c-0.181 0.365-0.195 0.804 0 1.192 0 0 0.528 1.052 1.493 2.457 0.601 0.875 1.384 1.909 2.343 2.957 1.192 1.305 2.672 2.649 4.425 3.733 2.127 1.315 4.675 2.256 7.597 2.256s5.471-0.941 7.597-2.256c1.753-1.084 3.233-2.428 4.425-3.733 0.957-1.048 1.741-2.083 2.343-2.957 0.965-1.405 1.493-2.457 1.493-2.457 0.181-0.365 0.195-0.804 0-1.192 0 0-0.528-1.052-1.493-2.457-0.601-0.875-1.384-1.909-2.343-2.957-1.192-1.305-2.672-2.649-4.425-3.733-2.127-1.315-4.675-2.256-7.597-2.256s-5.471 0.941-7.597 2.256c-1.753 1.084-3.233 2.428-4.425 3.733-0.959 1.048-1.741 2.081-2.343 2.957-0.965 1.405-1.493 2.457-1.493 2.457zM2.853 16c0.217-0.375 0.543-0.908 0.979-1.544 0.547-0.795 1.253-1.728 2.113-2.668 1.073-1.175 2.367-2.341 3.859-3.264 1.8-1.112 3.868-1.857 6.196-1.857s4.396 0.745 6.195 1.857c1.492 0.923 2.785 2.089 3.859 3.264 0.859 0.94 1.567 1.873 2.113 2.668 0.437 0.636 0.763 1.168 0.979 1.544-0.217 0.375-0.543 0.908-0.979 1.544-0.547 0.795-1.253 1.728-2.113 2.668-1.073 1.175-2.367 2.341-3.859 3.264-1.799 1.112-3.867 1.857-6.195 1.857s-4.396-0.745-6.195-1.857c-1.492-0.923-2.785-2.089-3.859-3.264-0.859-0.94-1.567-1.873-2.113-2.668-0.437-0.636-0.763-1.169-0.98-1.544zM21.333 16c0-1.472-0.599-2.808-1.563-3.771s-2.299-1.563-3.771-1.563-2.808 0.599-3.771 1.563-1.563 2.299-1.563 3.771 0.599 2.808 1.563 3.771 2.299 1.563 3.771 1.563 2.808-0.599 3.771-1.563 1.563-2.299 1.563-3.771zM18.667 16c0 0.737-0.297 1.401-0.781 1.885s-1.148 0.781-1.885 0.781-1.401-0.297-1.885-0.781-0.781-1.148-0.781-1.885 0.297-1.401 0.781-1.885 1.148-0.781 1.885-0.781 1.401 0.297 1.885 0.781 0.781 1.148 0.781 1.885z"></path>
</svg>
<svg id="icon-eye-off" width="32" height="32" viewBox="0 0 32 32" x="336" y="0">
<path fill="#a1abc9" d="M13.504 6.952c0.868-0.203 1.728-0.295 2.48-0.285 2.344 0 4.412 0.745 6.211 1.857 1.492 0.923 2.785 2.089 3.859 3.264 0.859 0.94 1.567 1.873 2.113 2.668 0.436 0.633 0.76 1.165 0.977 1.54-0.728 1.271-1.547 2.428-2.371 3.389-0.479 0.559-0.415 1.401 0.144 1.88s1.401 0.415 1.88-0.144c1.091-1.272 2.148-2.816 3.044-4.493 0.197-0.372 0.217-0.824 0.017-1.225 0 0-0.528-1.052-1.493-2.457-0.601-0.875-1.384-1.909-2.343-2.957-1.192-1.305-2.672-2.649-4.425-3.733-2.127-1.313-4.675-2.255-7.581-2.255-0.979-0.012-2.053 0.105-3.12 0.355-0.717 0.168-1.163 0.885-0.995 1.603s0.885 1.163 1.603 0.995zM13.369 15.256l3.375 3.375c-0.243 0.081-0.496 0.125-0.751 0.135-0.684 0.024-1.373-0.212-1.912-0.715s-0.823-1.173-0.847-1.857c-0.011-0.317 0.033-0.635 0.135-0.939zM7.977 9.863l3.404 3.404c-0.579 0.921-0.848 1.979-0.811 3.021 0.048 1.363 0.617 2.711 1.695 3.713s2.461 1.476 3.824 1.428c0.923-0.032 1.839-0.304 2.645-0.811l3.096 3.096c-1.837 1.065-3.86 1.595-5.845 1.619-2.312 0-4.38-0.745-6.179-1.857-1.492-0.923-2.785-2.089-3.859-3.264-0.859-0.94-1.567-1.873-2.113-2.668-0.435-0.633-0.76-1.164-0.976-1.539 1.4-2.429 3.168-4.505 5.121-6.143zM0.391 2.276l5.695 5.695c-2.308 1.972-4.359 4.477-5.927 7.399-0.197 0.372-0.219 0.825-0.017 1.227 0 0 0.528 1.052 1.493 2.457 0.601 0.875 1.384 1.909 2.343 2.957 1.192 1.305 2.672 2.649 4.425 3.733 2.127 1.315 4.675 2.256 7.613 2.256 2.657-0.032 5.359-0.801 7.753-2.345l5.955 5.955c0.521 0.521 1.365 0.521 1.885 0s0.521-1.365 0-1.885l-11.835-11.835c-0.003-0.003-0.007-0.007-0.009-0.009l-5.612-5.613c-0.011-0.009-0.021-0.021-0.032-0.032l-11.845-11.844c-0.521-0.521-1.365-0.521-1.885 0s-0.521 1.365 0 1.885z"></path>
</svg>
<svg id="icon-lock" width="32" height="32" viewBox="0 0 32 32" x="384" y="0">
<path fill="#a1abc9" d="M16 17.333c-0.354 0-0.693 0.141-0.943 0.391s-0.391 0.589-0.391 0.943v4c0 0.354 0.141 0.693 0.391 0.943s0.589 0.391 0.943 0.391c0.354 0 0.693-0.141 0.943-0.391s0.391-0.589 0.391-0.943v-4c0-0.354-0.141-0.693-0.391-0.943s-0.589-0.391-0.943-0.391zM22.667 12v-2.667c0-1.768-0.702-3.464-1.953-4.714s-2.946-1.953-4.714-1.953-3.464 0.702-4.714 1.953c-1.25 1.25-1.953 2.946-1.953 4.714v2.667c-1.061 0-2.078 0.421-2.828 1.172s-1.172 1.768-1.172 2.828v9.333c0 1.061 0.421 2.078 1.172 2.828s1.768 1.172 2.828 1.172h13.333c1.061 0 2.078-0.421 2.828-1.172s1.172-1.768 1.172-2.828v-9.333c0-1.061-0.421-2.078-1.172-2.828s-1.768-1.172-2.828-1.172zM12 9.333c0-1.061 0.421-2.078 1.172-2.828s1.768-1.172 2.828-1.172c1.061 0 2.078 0.421 2.828 1.172s1.172 1.768 1.172 2.828v2.667h-8v-2.667zM24 25.333c0 0.354-0.141 0.693-0.391 0.943s-0.589 0.391-0.943 0.391h-13.333c-0.354 0-0.693-0.141-0.943-0.391s-0.391-0.589-0.391-0.943v-9.333c0-0.354 0.14-0.693 0.391-0.943s0.589-0.391 0.943-0.391h13.333c0.354 0 0.693 0.141 0.943 0.391s0.391 0.589 0.391 0.943v9.333z"></path>
</svg>
<svg id="icon-medical-history" width="30" height="32" viewBox="0 0 30 32" x="432" y="0">
<path fill="#dce0ec" d="M14.961 1.085c-0.921-0.001-1.726 0.622-1.955 1.515l-0 0c-0.055 0.212-0.246 0.36-0.465 0.36h-2.263v3.274h9.383v-3.274h-2.268M14.961 1.085v0zM14.961 1.085h0.006c0.941 0 1.768 0.623 1.957 1.496l0 0c0.048 0.221 0.243 0.379 0.469 0.379M17.393 2.96v0zM20.621 4.052v0.125h2.771c1.535 0 2.794 1.21 2.794 2.674v20.357c0 1.465-1.258 2.666-2.794 2.666h-16.784c-1.535 0-2.794-1.201-2.794-2.666v-20.357c0-1.465 1.259-2.674 2.794-2.674h2.71v-1.696c0.009-0.269 0.232-0.483 0.502-0.481h2.374l0.032-0.077c0.462-1.098 1.541-1.808 2.732-1.798v0h0.011c1.226 0 2.315 0.756 2.752 1.798l0.032 0.077h2.393c0.127 0 0.248 0.051 0.337 0.14s0.139 0.211 0.138 0.338v1.574zM9.319 5.262v-0.125h-2.71c-0.992 0-1.834 0.765-1.834 1.715v20.357c0 0.951 0.843 1.706 1.834 1.706h16.783c0.991 0 1.834-0.756 1.834-1.706v-20.357c0-0.95-0.842-1.715-1.834-1.715h-2.771v1.559l0 0.001c0.003 0.268-0.209 0.488-0.476 0.496h-10.323c-0.274-0.006-0.496-0.226-0.504-0.5v-1.432z"></path>
<path fill="#dce0ec" d="M10.54 22.742h8.921c0.334 0 0.605-0.271 0.605-0.605s-0.271-0.605-0.605-0.605h-8.921c-0.334 0-0.605 0.271-0.605 0.605s0.271 0.605 0.605 0.605v0z"></path>
<path fill="#dce0ec" d="M8.725 25.161h12.55c0.334 0 0.605-0.271 0.605-0.605s-0.271-0.605-0.605-0.605h-12.55c-0.334 0-0.605 0.271-0.605 0.605s0.271 0.605 0.605 0.605v0z"></path>
<path fill="#dce0ec" d="M10.827 16.331h2.359v2.359c0 0.334 0.271 0.605 0.605 0.605h2.419c0.334 0 0.605-0.271 0.605-0.605v-2.359h2.359c0.334 0 0.605-0.271 0.605-0.605v-2.419c0-0.334-0.271-0.605-0.605-0.605h-2.359v-2.359c0-0.334-0.271-0.605-0.605-0.605h-2.419c-0.334 0-0.605 0.271-0.605 0.605v2.359h-2.359c-0.334 0-0.605 0.271-0.605 0.605v2.419c0 0.334 0.271 0.605 0.605 0.605zM11.431 13.911h2.359c0.334 0 0.605-0.271 0.605-0.605v-2.359h1.21v2.359c0 0.334 0.271 0.605 0.605 0.605h2.359v1.21h-2.359c-0.334 0-0.605 0.271-0.605 0.605v2.359h-1.21v-2.359c0-0.334-0.271-0.605-0.605-0.605h-2.359v-1.21z"></path>
</svg>
<svg id="icon-more-vertical" width="32" height="32" viewBox="0 0 32 32" x="480" y="0">
<path fill="none" stroke="#dce0ec" stroke-linejoin="round" stroke-linecap="round" stroke-miterlimit="4" stroke-width="2.6667" d="M16 26.667c0.736 0 1.333-0.597 1.333-1.333s-0.597-1.333-1.333-1.333c-0.736 0-1.333 0.597-1.333 1.333s0.597 1.333 1.333 1.333z"></path>
<path fill="none" stroke="#dce0ec" stroke-linejoin="round" stroke-linecap="round" stroke-miterlimit="4" stroke-width="2.6667" d="M16 17.333c0.736 0 1.333-0.597 1.333-1.333s-0.597-1.333-1.333-1.333c-0.736 0-1.333 0.597-1.333 1.333s0.597 1.333 1.333 1.333z"></path>
<path fill="none" stroke="#dce0ec" stroke-linejoin="round" stroke-linecap="round" stroke-miterlimit="4" stroke-width="2.6667" d="M16 8c0.736 0 1.333-0.597 1.333-1.333s-0.597-1.333-1.333-1.333c-0.736 0-1.333 0.597-1.333 1.333s0.597 1.333 1.333 1.333z"></path>
</svg>
<svg id="icon-reason" width="32" height="32" viewBox="0 0 32 32" x="528" y="0">
<path fill="#dce0ec" d="M18.667 14.667h-1.333v-1.333c0-0.354-0.141-0.693-0.391-0.943s-0.589-0.391-0.943-0.391c-0.354 0-0.693 0.14-0.943 0.391s-0.391 0.589-0.391 0.943v1.333h-1.333c-0.354 0-0.693 0.141-0.943 0.391s-0.391 0.589-0.391 0.943c0 0.354 0.14 0.693 0.391 0.943s0.589 0.391 0.943 0.391h1.333v1.333c0 0.354 0.141 0.693 0.391 0.943s0.589 0.391 0.943 0.391c0.354 0 0.693-0.141 0.943-0.391s0.391-0.589 0.391-0.943v-1.333h1.333c0.354 0 0.693-0.141 0.943-0.391s0.391-0.589 0.391-0.943c0-0.354-0.141-0.693-0.391-0.943s-0.589-0.391-0.943-0.391zM26.88 6.667c-1.422-1.407-3.3-2.26-5.295-2.404s-3.976 0.429-5.585 1.617c-1.696-1.262-3.808-1.834-5.909-1.601s-4.037 1.253-5.416 2.855c-1.379 1.602-2.1 3.668-2.018 5.781s0.963 4.116 2.463 5.605l8 8.067c0.75 0.749 1.767 1.17 2.827 1.17s2.077-0.421 2.827-1.17l8-8.067c0.788-0.77 1.416-1.688 1.848-2.701s0.66-2.102 0.669-3.203c0.010-1.101-0.198-2.194-0.612-3.215s-1.025-1.95-1.799-2.734zM25 16.613l-8 8c-0.124 0.125-0.271 0.224-0.434 0.292s-0.337 0.103-0.513 0.103-0.35-0.035-0.513-0.103c-0.162-0.068-0.31-0.167-0.434-0.292l-8-8c-1.046-1.069-1.631-2.505-1.631-4s0.586-2.931 1.631-4c1.066-1.052 2.503-1.642 4-1.642s2.934 0.59 4 1.642c0.124 0.125 0.271 0.224 0.434 0.292s0.337 0.103 0.513 0.103 0.35-0.035 0.513-0.103c0.162-0.068 0.31-0.167 0.434-0.292 1.066-1.052 2.503-1.642 4-1.642s2.934 0.59 4 1.642c1.054 1.070 1.644 2.512 1.644 4.013s-0.591 2.943-1.644 4.013v-0.027z"></path>
</svg>
<svg id="icon-search" width="32" height="32" viewBox="0 0 32 32" x="576" y="0">
<path fill="#a1abc9" d="M28.947 27.053l-4.947-4.907c1.92-2.394 2.85-5.433 2.598-8.492s-1.665-5.905-3.951-7.953c-2.285-2.048-5.269-3.143-8.337-3.059s-5.987 1.34-8.157 3.51-3.426 5.089-3.51 8.157c-0.084 3.068 1.011 6.051 3.059 8.337s4.894 3.699 7.953 3.951 6.097-0.678 8.492-2.598l4.907 4.907c0.124 0.125 0.271 0.224 0.434 0.292s0.337 0.103 0.513 0.103 0.35-0.035 0.513-0.103c0.162-0.068 0.31-0.167 0.434-0.292 0.24-0.249 0.375-0.581 0.375-0.927s-0.134-0.678-0.375-0.927zM14.667 24c-1.846 0-3.65-0.547-5.185-1.573s-2.731-2.483-3.438-4.189c-0.706-1.705-0.891-3.582-0.531-5.393s1.249-3.474 2.554-4.779 2.968-2.194 4.779-2.554c1.81-0.36 3.687-0.175 5.393 0.531s3.163 1.903 4.189 3.438c1.026 1.535 1.573 3.339 1.573 5.185 0 2.475-0.983 4.849-2.734 6.6s-4.124 2.734-6.6 2.734z"></path>
</svg>
<svg id="icon-sliders-v-alt" width="32" height="32" viewBox="0 0 32 32" x="624" y="0">
<path fill="#a1abc9" d="M26.667 10.907v-6.907c0-0.354-0.14-0.693-0.391-0.943s-0.589-0.391-0.943-0.391-0.693 0.14-0.943 0.391c-0.25 0.25-0.391 0.589-0.391 0.943v6.907c-0.772 0.28-1.439 0.791-1.911 1.464s-0.725 1.474-0.725 2.296 0.253 1.623 0.725 2.296c0.471 0.673 1.139 1.184 1.911 1.464v9.573c0 0.354 0.141 0.693 0.391 0.943s0.589 0.391 0.943 0.391c0.354 0 0.693-0.141 0.943-0.391s0.391-0.589 0.391-0.943v-9.573c0.772-0.28 1.439-0.791 1.911-1.464s0.724-1.474 0.724-2.296-0.253-1.623-0.724-2.296c-0.471-0.673-1.139-1.184-1.911-1.464zM25.333 16c-0.264 0-0.521-0.078-0.741-0.225s-0.39-0.355-0.491-0.598-0.127-0.512-0.076-0.77c0.051-0.259 0.179-0.496 0.365-0.683s0.424-0.313 0.683-0.365c0.259-0.051 0.527-0.025 0.77 0.076s0.452 0.272 0.598 0.491c0.147 0.219 0.225 0.477 0.225 0.741 0 0.354-0.14 0.693-0.391 0.943s-0.589 0.391-0.943 0.391zM17.333 18.907v-14.907c0-0.354-0.14-0.693-0.391-0.943s-0.589-0.391-0.943-0.391-0.693 0.14-0.943 0.391c-0.25 0.25-0.391 0.589-0.391 0.943v14.907c-0.772 0.28-1.439 0.791-1.911 1.464s-0.724 1.474-0.724 2.296 0.253 1.623 0.724 2.296c0.471 0.673 1.139 1.184 1.911 1.464v1.573c0 0.354 0.141 0.693 0.391 0.943s0.589 0.391 0.943 0.391c0.354 0 0.693-0.141 0.943-0.391s0.391-0.589 0.391-0.943v-1.573c0.772-0.28 1.439-0.791 1.911-1.464s0.724-1.474 0.724-2.296-0.253-1.623-0.724-2.296c-0.471-0.673-1.139-1.184-1.911-1.464zM16 24c-0.264 0-0.521-0.078-0.741-0.225s-0.39-0.355-0.491-0.598-0.127-0.512-0.076-0.77c0.051-0.259 0.179-0.496 0.365-0.683s0.424-0.313 0.683-0.365 0.527-0.025 0.77 0.076c0.244 0.101 0.452 0.272 0.598 0.491s0.225 0.477 0.225 0.741c0 0.354-0.14 0.693-0.391 0.943s-0.589 0.391-0.943 0.391zM8 8.24v-4.24c0-0.354-0.14-0.693-0.391-0.943s-0.589-0.391-0.943-0.391c-0.354 0-0.693 0.14-0.943 0.391s-0.391 0.589-0.391 0.943v4.24c-0.772 0.28-1.439 0.791-1.911 1.464s-0.724 1.474-0.724 2.296c0 0.822 0.253 1.623 0.724 2.296s1.139 1.184 1.911 1.464v12.24c0 0.354 0.14 0.693 0.391 0.943s0.589 0.391 0.943 0.391c0.354 0 0.693-0.141 0.943-0.391s0.391-0.589 0.391-0.943v-12.24c0.772-0.28 1.439-0.791 1.911-1.464s0.724-1.474 0.724-2.296-0.253-1.623-0.724-2.296c-0.472-0.673-1.139-1.184-1.911-1.464zM6.667 13.333c-0.264 0-0.521-0.078-0.741-0.225s-0.39-0.355-0.491-0.598c-0.101-0.244-0.127-0.512-0.076-0.77s0.178-0.496 0.365-0.683c0.186-0.186 0.424-0.313 0.683-0.365s0.527-0.025 0.77 0.076c0.244 0.101 0.452 0.272 0.598 0.491s0.225 0.477 0.225 0.741c0 0.354-0.14 0.693-0.391 0.943s-0.589 0.391-0.943 0.391z"></path>
</svg>
<svg id="icon-user" width="32" height="32" viewBox="0 0 32 32" x="672" y="0">
<path fill="#a1abc9" d="M16 2.667c-2.586 0.005-5.115 0.762-7.278 2.178s-3.868 3.432-4.907 5.8c-1.039 2.368-1.366 4.988-0.943 7.539s1.58 4.924 3.328 6.83c1.249 1.353 2.764 2.433 4.451 3.172s3.508 1.12 5.349 1.12c1.841 0 3.663-0.381 5.349-1.12s3.202-1.819 4.451-3.172c1.748-1.906 2.905-4.279 3.328-6.83s0.096-5.17-0.943-7.539c-1.039-2.368-2.743-4.383-4.907-5.8s-4.692-2.173-7.278-2.178zM16 26.667c-2.762-0.004-5.415-1.080-7.4-3 0.603-1.467 1.628-2.722 2.946-3.605s2.868-1.355 4.454-1.355c1.586 0 3.137 0.472 4.454 1.355s2.343 2.138 2.946 3.605c-1.985 1.92-4.638 2.996-7.4 3zM13.333 13.333c0-0.527 0.156-1.043 0.449-1.482s0.709-0.78 1.197-0.982c0.487-0.202 1.023-0.255 1.541-0.152s0.993 0.357 1.365 0.73 0.627 0.848 0.73 1.365c0.103 0.517 0.050 1.053-0.152 1.541s-0.544 0.904-0.982 1.197c-0.439 0.293-0.954 0.449-1.482 0.449-0.707 0-1.385-0.281-1.886-0.781s-0.781-1.178-0.781-1.886zM25.213 21.333c-1.191-2.038-3.025-3.623-5.213-4.507 0.679-0.77 1.121-1.719 1.274-2.734s0.009-2.052-0.413-2.988-1.106-1.729-1.968-2.286c-0.862-0.557-1.867-0.853-2.893-0.853s-2.031 0.296-2.893 0.853-1.546 1.351-1.968 2.286c-0.422 0.935-0.566 1.973-0.413 2.988s0.595 1.964 1.274 2.734c-2.189 0.884-4.022 2.469-5.213 4.507-0.949-1.617-1.451-3.458-1.453-5.333 0-2.829 1.124-5.542 3.124-7.542s4.713-3.124 7.542-3.124c2.829 0 5.542 1.124 7.543 3.124s3.124 4.713 3.124 7.542c-0.002 1.875-0.504 3.716-1.453 5.333z"></path>
</svg>
</svg>
